<svg xmlns="http://www.w3.org/2000/svg" xmlns:xlink="http://www.w3.org/1999/xlink" version="1.1" x="0px" y="0px" viewBox="0 0 20 25" enable-background="new 0 0 20 20" xml:space="preserve"><path fill="#000000" d="M19.4,2.1c-3-1.3-6.4-1.4-9.4-0.2C7,0.7,3.6,0.7,0.6,2.1C0.2,2.2,0,2.6,0,3v15c0,0.3,0.2,0.7,0.5,0.8  c0.3,0.2,0.6,0.2,1,0.1c2.6-1.2,5.6-1.2,8.2,0c0.3,0.1,0.6,0.1,0.8,0c2.6-1.2,5.6-1.2,8.2,0c0.1,0.1,0.6,0.2,1-0.1  c0.3-0.2,0.5-0.5,0.5-0.8V3C20,2.6,19.8,2.2,19.4,2.1z M5.5,16c-1.2,0-2.4,0.2-3.5,0.5V3.6c2.2-0.8,4.7-0.8,7,0v12.9  C7.9,16.2,6.7,16,5.5,16z M18,16.5c-2.3-0.7-4.7-0.7-7,0V3.7c2.2-0.8,4.8-0.9,7,0V16.5z"/><text x="0" y="35" fill="#000000" font-size="5px" font-weight="bold" font-family="'Helvetica Neue', Helvetica, Arial-Unicode, Arial, Sans-serif">Created by ProSymbols</text><text x="0" y="40" fill="#000000" font-size="5px" font-weight="bold" font-family="'Helvetica Neue', Helvetica, Arial-Unicode, Arial, Sans-serif">from the Noun Project</text></svg>